<svg width="100" height="100" viewBox="0 0 100 100" fill="none" xmlns="http://www.w3.org/2000/svg">
<rect width="100" height="100" rx="25" fill="#18181B"/>
<path d="M25.7633 56.2588C23.6849 53.7819 24.0079 50.089 26.4849 48.0107V48.0107C28.9202 45.9672 32.5413 46.2406 34.6421 48.6266L38.7505 53.2925C40.9508 55.7914 40.6623 59.6117 38.1117 61.7519V61.7519C35.6035 63.8565 31.864 63.5294 29.7594 61.0212L25.7633 56.2588Z" fill="white"/>
<path d="M23.6628 37.7534C30.9102 30.506 42.9032 31.3857 49.0154 39.6131L56.8907 50.2137C60.9628 55.6949 66.8859 59.512 73.5599 60.9559L74.2854 61.1129C74.4274 61.1436 74.4865 61.3137 74.3943 61.4259V61.4259C68.2036 68.9522 56.4648 68.2244 51.2512 59.991L44.3706 49.1248C40.0406 42.2867 32.5106 38.1421 24.4169 38.1421H23.8238C23.621 38.1421 23.5194 37.8968 23.6628 37.7534V37.7534Z" fill="white"/>
<path d="M61.0372 44.1983C58.9589 41.7214 59.2819 38.0286 61.7589 35.9502V35.9502C64.1942 33.9067 67.8153 34.1801 69.9161 36.5661L74.0245 41.232C76.2247 43.7309 75.9363 47.5513 73.3857 49.6914V49.6914C70.8775 51.7961 67.138 51.4689 65.0333 48.9607L61.0372 44.1983Z" fill="white"/>
</svg>
